<svg version="1.2" xmlns="http://www.w3.org/2000/svg" viewBox="0 0 27 26" width="27" height="26">
	<title>SparTabBarIcon-svg</title>
	<style>
		.s0 { fill: #008348 } 
		.s1 { fill: #ec1d24 } 
	</style>
	<path id="Layer" fill-rule="evenodd" class="s0" d="m24.2 21c-3.4 4.2-9.4 6.1-14.7 4.4-5.1-1.5-8.9-6.3-9.2-11.8-0.3-5.1 2.6-9.8 6.9-12 4.1-2.3 10-2.1 14 0.6 1.8 1.2 3.3 3 4.4 4.9 2.4 4.3 1.6 10.2-1.4 13.9zm-0.6-11.9c-1.2-2.8-3.7-5-6.5-5.9-4.5-1.5-9.4 0-12.2 3.8-2 2.6-2.4 6.7-1.2 9.7 1.1 2.5 3 5.1 5.9 5.3 0.9 0 2-0.4 2.4-1.4 0.4-0.8 0.2-2 0.3-3l-7.1 0.1c3.4-4.4 6.4-9.7 8.4-15 2 5.2 4.9 10.2 8.5 14.7l0.2 0.2h-7.2c-0.1 0.9-0.2 1.7 0 2.5q0.1 0.3 0.3 0.7 0.2 0.3 0.4 0.5 0.3 0.3 0.6 0.4 0.3 0.2 0.7 0.3c1.7 0.3 3.1-0.8 4.4-2 2.7-2.7 3.5-7.4 2.1-10.9z"/>
	<path id="Layer" fill-rule="evenodd" class="s1" d="m-5 0v26h-129v-26zm-28.9 18.3c-2-2.8-6-7.7-7.9-10.4-1.4-1.7-1.6-2.2-3.6-2.2-1.3-0.1-2.1 0.7-2.8 1.7l-8.2 10.6q-0.5 0.8-0.1 1.6c0.1 0.5 0.6 0.9 1.1 1 0.9 0.1 1.5-0.3 2-0.9l1.6-2.1 13 0.1c0.8 0.9 1.5 1.9 2.5 2.8 0.6 0.2 1.5 0.1 2-0.3 0.3-0.6 0.6-1.2 0.4-1.9zm-25.1-7.7c0-2.5-1.9-4.9-4.4-4.9h-12.6c-0.6 0-1.5 0.2-2.2 0.8-0.6 0.6-1 1.1-1 2v10.5c0 0.9 0.8 1.5 1.7 1.6 0.9 0 1.8-0.7 1.8-1.6v-9.9l0.1-0.1h11.4c0.5 0 0.9 0.3 1.2 0.8 0.2 0.5 0.2 0.8 0.1 1.3-0.3 0.5-0.7 0.9-1.1 0.9h-10.3-0.4c0 0.4 0 0.9 0.2 1.3 0.5 1 1.4 1.9 2.7 2.1h8.5c2 0 4.2-2.3 4.3-4.8zm-27.2 4c-0.6-1.9-2.2-3-4.1-3.2h-10.3c0 0-0.5 0.1-0.8-0.1-0.7-0.3-1.1-1-0.8-1.7 0.3-0.6 1-0.8 1.4-0.8h14.2c0-0.6-0.1-1.1-0.3-1.5-0.7-1.5-2.4-1.7-4-1.7h-10c-1.5 0-2.3 0.3-3.4 1.1-1.3 1.1-1.9 2.4-1.7 4.2 0.3 2.1 2.2 3.8 4.1 3.8h10.9c0.8 0 1.3 0.7 1.3 1.5 0 0.7-0.7 1.4-1.2 1.4l-15.1-0.1v0.7c0.2 1.2 1.3 2.4 2.5 2.4h11.4c2 0 3.8 0 5.1-1.6 1.1-1.3 1.4-2.7 0.8-4.4zm75.3 0.3c0 0 0.6-0.4 1-0.7 1.6-1.5 2.3-3.3 1.6-5.3-0.7-1.9-2.4-3.2-4.2-3.2h-12.6c-0.9 0-1.5 0.1-2.2 0.7-0.7 0.6-1.1 1-1.1 2.1v10.6c0 0.6 0.7 1.5 1.6 1.6 0.9 0 1.8-0.8 1.8-1.5v-10l0.1-0.1h11.6c0.4 0 0.9 0.3 1.1 0.8 0.2 0.5 0.2 0.8 0 1.2-0.2 0.5-0.6 0.9-1 0.9h-10.7v0.5c0 1.3 1.7 2.9 3.1 2.9h5.7c0.3 0.2 0.4 0.4 0.6 0.6 1.2 1.5 3.3 4 3.3 4 0.3 0.3 1.1 0.6 1.7 0.3 0.5-0.2 0.7-0.4 0.9-0.9 0.2-0.5 0.1-1.1-0.1-1.3z"/>
	<path id="Layer" fill-rule="evenodd" class="s1" d="m-44.7 9.7c-0.1-0.1-0.2 0.1-0.2 0.1l-4.1 4.4h8.2c-1.1-1.5-2.5-2.9-3.7-4.4 0 0-0.1-0.1-0.2-0.1z"/>
</svg>