<svg version="1.2" xmlns="http://www.w3.org/2000/svg" viewBox="0 0 69 69" width="69" height="69">
	<title>CatalogTabBar-svg</title>
	<style>
		.s0 { fill: none;stroke: #000000;stroke-linecap: round;stroke-linejoin: round;stroke-width: 1.5 } 
	</style>
	<path id="Layer" fill-rule="evenodd" class="s0" d="m41 25.3h-3c-1.1 0-2 0.9-2 2v3c0 1.1 0.9 2 2 2h3c1.1 0 2-0.9 2-2v-3c0-1.1-0.9-2-2-2z"/>
	<path id="Layer" fill-rule="evenodd" class="s0" d="m30 25.3h-3c-1.1 0-2 0.9-2 2v3c0 1.1 0.9 2 2 2h3c1.1 0 2-0.9 2-2v-3c0-1.1-0.9-2-2-2z"/>
	<path id="Layer" fill-rule="evenodd" class="s0" d="m41 36.3h-3c-1.1 0-2 0.9-2 2v3c0 1.1 0.9 2 2 2h3c1.1 0 2-0.9 2-2v-3c0-1.1-0.9-2-2-2z"/>
	<path id="Layer" fill-rule="evenodd" class="s0" d="m30 36.3h-3c-1.1 0-2 0.9-2 2v3c0 1.1 0.9 2 2 2h3c1.1 0 2-0.9 2-2v-3c0-1.1-0.9-2-2-2z"/>
</svg>